PathFileType	4	(X/Y/Z)	Patient4_TMGait_0pt4_01_right_28.trc.trc
DataRate	CameraRate	NumFrames	NumMarkers	Units	OrigDataRate	OrigDataStartFrame	OrigNumFrames
76.923076923077	76.923076923077	4	33	mm	76.923076923077	71	       141
Frame#	Time	Sacral			L.Shoulder			Chest			R.Shoulder			Neck			R.ASIS			L.ASIS			R.Thigh.Superior			R.Thigh.Lateral			R.Thigh.Inferior			R.Patella			L.Thigh.Superior			L.Thigh.Lateral			L.Thigh.Inferior			L.Patella			L.Shank.Superior			L.Shank.Lateral			L.Shank.Inferior			R.Shank.Superior			R.Shank.Lateral			R.Shank.Inferior			R.Heel			R.Midfoot.Superior			R.Midfoot.Lateral			R.Toe			L.Heel			L.Midfoot.Lateral			L.Midfoot.Superior			L.Toe			L.Elbow			L.Wrist			R.Elbow			R.Wrist			
		X1	Y1	Z1	X2	Y2	Z2	X3	Y3	Z3	X4	Y4	Z4	X5	Y5	Z5	X6	Y6	Z6	X7	Y7	Z7	X8	Y8	Z8	X9	Y9	Z9	X10	Y10	Z10	X11	Y11	Z11	X12	Y12	Z12	X13	Y13	Z13	X14	Y14	Z14	X15	Y15	Z15	X16	Y16	Z16	X17	Y17	Z17	X18	Y18	Z18	X19	Y19	Z19	X20	Y20	Z20	X21	Y21	Z21	X22	Y22	Z22	X23	Y23	Z23	X24	Y24	Z24	X25	Y25	Z25	X26	Y26	Z26	X27	Y27	Z27	X28	Y28	Z28	X29	Y29	Z29	X30	Y30	Z30	X31	Y31	Z31	X32	Y32	Z32	X33	Y33	Z33	

71	37.030000000000	884.447715828010	1002.074201758431	538.812183068474	1040.086469249678	1427.692094625305	337.938918036088	1159.378498850309	1362.910339596754	489.232965997286	1092.939113794850	1440.144991180828	668.860440117680	1040.158321155135	1491.990477116713	492.485013289015	1119.481936483674	938.717378865160	640.504102470340	1087.391859349446	958.822254948665	367.220780015452	1123.288792044707	726.346448960885	609.827086888214	1025.609921367852	629.373721406325	676.377194296037	1083.885216504759	566.279863111867	592.846208772451	1067.370501376940	482.289950347317	597.681430396399	1159.720626424031	764.367321885113	397.975642534439	1100.862179249920	637.615916918575	325.129367718641	1201.312195993023	576.421673345473	387.772706768043	1220.186886738448	507.911108433563	388.034752759916	1199.085495578193	434.861569959502	377.583708834769	1121.861896339116	311.515555920028	325.815468190997	1196.814487398847	205.023892263888	384.402527873205	1031.692970588607	396.402491612408	606.956621882645	953.475254323616	300.110884840407	673.746546642469	981.083008600024	202.092301254772	607.129516050552	834.229238206877	42.922508143442	580.923831000018	1005.279940014777	96.188257801352	613.279016375132	918.213018859768	36.470247365375	654.922437907630	1126.116057249031	44.545133943979	640.531977754326	1093.256782320775	40.429701513550	422.018084099409	1167.449317243361	37.936467466442	342.119613429250	1248.136407639661	102.669718468543	366.687116484653	1377.203316059343	56.350949038382	339.602126607914	951.282848377889	1084.168666775174	234.843833451952	977.900784723636	827.425024644278	197.204161387694	1162.217635747795	1104.702900038769	797.107112348559	1379.639768932591	1004.708103942993	707.459031209137	
72	37.043000000000	886.160581545748	1001.122730888325	536.615846453381	1040.144839183253	1427.007756178351	335.261932571406	1159.673812155213	1362.773193957306	486.582091272883	1092.814358880890	1439.613601563428	666.284329424052	1040.126680107775	1491.376562491855	489.834281861476	1121.431297056396	938.129383609402	638.497575740390	1089.201830783460	957.966269674063	365.217411538476	1124.830269664769	725.413724667115	608.328621551395	1026.216195009690	628.764171744119	674.618991067023	1084.324648871632	565.138594561722	591.455851655047	1067.134333084169	480.785373047254	596.146001101708	1161.118790275654	762.448854913845	396.286762065005	1100.566677014703	636.111959820591	324.753165759436	1200.815428575332	574.545701914793	387.526921528173	1218.282524792782	505.401285902400	388.356183483217	1196.827688132218	432.253260453731	377.771362297258	1118.348388558593	309.561231196183	326.202173322707	1191.768935944494	202.530350270919	385.573773011508	1030.341109248860	395.441705035570	605.649483986663	951.067930183633	300.285939964785	672.879849189273	977.313900813705	201.700280137269	606.588767659758	829.072053102023	43.172003551413	581.016012478749	1000.182492380221	96.140684612562	613.175491607269	913.067863798769	36.563501477674	654.921659759283	1121.002070608137	44.127946878329	640.636423777933	1085.884361073774	39.323476252138	423.263471235362	1159.923764603130	36.817853204213	343.105221925366	1241.327380444011	100.277187762696	368.365076539799	1370.101936129935	52.779780027513	340.664675752272	952.391918366509	1083.238855023391	232.203286462853	981.359672218355	826.713027453207	194.063786050538	1161.255080818645	1103.599935261388	793.988481108937	1377.149686085815	1002.240050920796	702.170323957623	
73	37.056000000000	887.778417316072	1000.370056952856	534.443842043743	1040.301826393132	1426.429898035673	332.515708336980	1160.075624619281	1362.696340797364	483.832871613290	1092.922557183822	1439.257923796231	663.600170943976	1040.229251624825	1490.903248795710	487.066474398799	1123.273866468737	937.601371618318	636.282056719651	1090.809639057687	957.406000394996	363.043820009310	1126.477808655903	724.592942567162	606.563742283587	1027.163382938202	628.157616351045	672.662406339555	1085.193127980810	564.086101159183	589.821417865051	1067.478055075537	479.184762028491	594.471408041565	1162.590319858212	761.165685973778	394.573425913559	1100.828553348701	635.195534918777	324.114538134043	1200.759274851708	573.259694813813	387.118687110881	1216.921829754075	503.519977884400	388.475200355566	1195.173885013789	430.218101044398	377.749206610462	1115.680125823541	308.193011664992	326.022154529528	1187.350156356029	200.636572385643	386.394528990155	1029.400986035803	394.445834840864	604.203550317439	948.961436215680	300.563334632355	671.904695579587	973.744310353984	201.377490095330	606.002843391747	823.930493989149	43.621479779943	581.128818213208	995.190697013684	96.178663978561	613.127339864328	907.961287577120	36.756274251988	654.920217689800	1115.930051555175	43.650298524643	640.750736877764	1079.203086183901	38.520493443419	423.973411445661	1153.205949525297	36.143909806079	343.680062788808	1235.060068056043	98.647277569298	369.649204339111	1363.677501513769	50.389411634080	341.563653983725	953.982583473808	1082.321311844271	229.387331732524	985.493365626014	826.058432429045	190.785298423980	1159.799591225915	1102.566101060839	790.871549937468	1373.965496093487	999.088893580107	697.282593042863	
74	37.069000000000	889.277335115867	999.832435512049	532.284727565928	1040.536087771805	1425.982702620176	329.733681679424	1160.577294093616	1362.679860957791	481.001238440273	1093.290274066766	1439.096295417058	660.823728415960	1040.463653352491	1490.583924265111	484.214333241560	1124.962300557328	937.166587057334	633.851023616296	1092.195708994223	957.143917711134	360.678090815176	1128.157718273019	723.925615773368	604.527836211824	1028.437678311605	627.578195247913	670.533304777060	1086.503485335219	563.157739718428	587.969046124123	1068.464244922511	477.499469818932	592.743411992042	1164.135332087226	760.553529495941	392.819440051059	1101.637236113499	634.823819382122	323.190107209188	1201.120440057300	572.509926520562	386.467208934058	1216.095558451528	502.216996044571	388.319809339586	1194.086233118006	428.713329825108	377.502753976332	1113.769039116524	307.370594735266	325.333478134972	1183.499921745675	199.299301352080	386.868063549046	1028.911502298464	393.431763723708	602.674708604099	947.169795195494	300.973265372375	670.848667862364	970.400605199480	201.157715854484	605.400815298813	818.812886820360	44.352183199874	581.266441984503	990.329536139637	96.303616913652	613.136040321313	902.900817595071	37.085748802218	654.923905742766	1110.907824431706	43.117171931437	640.873054981679	1073.171224603536	38.009911437119	424.244881199579	1147.215429120890	35.831039309706	343.908219287850	1229.302319124420	97.684778473872	370.524630317301	1357.866316137649	49.015140073855	342.239354696838	956.028237123882	1081.455792831152	226.409859779715	990.292525834626	825.505794538131	187.399213674653	1157.870415943850	1101.635809842268	787.758163504448	1370.091517436809	995.264314811175	692.824439828869	
